<svg xmlns="http://www.w3.org/2000/svg" viewBox="0 0 64 64">
  <defs>
    <linearGradient id="g" x1="0" y1="0" x2="1" y2="1">
      <stop offset="0%" stop-color="#6366f1"/>
      <stop offset="100%" stop-color="#a855f7"/>
    </linearGradient>
  </defs>
  <rect x="4" y="4" width="22" height="22" rx="4" fill="url(#g)"/>
  <rect x="38" y="4" width="22" height="22" rx="4" fill="url(#g)"/>
  <rect x="4" y="38" width="22" height="22" rx="4" fill="url(#g)"/>
  <rect x="10" y="10" width="10" height="10" rx="1" fill="#fff"/>
  <rect x="44" y="10" width="10" height="10" rx="1" fill="#fff"/>
  <rect x="10" y="44" width="10" height="10" rx="1" fill="#fff"/>
  <rect x="36" y="36" width="8" height="8" rx="1" fill="url(#g)"/>
  <rect x="48" y="36" width="8" height="8" rx="1" fill="url(#g)"/>
  <rect x="36" y="48" width="8" height="8" rx="1" fill="url(#g)"/>
  <rect x="48" y="48" width="8" height="8" rx="1" fill="url(#g)"/>
  <rect x="40" y="40" width="4" height="4" rx="0.5" fill="#fff"/>
  <rect x="52" y="40" width="4" height="4" rx="0.5" fill="#fff"/>
  <rect x="40" y="52" width="4" height="4" rx="0.5" fill="#fff"/>
</svg>
